<mxfile host="65bd71144e">
    <diagram id="-rYmXwlPA6e48w3ofCKy" name="ページ1">
        <mxGraphModel dx="814" dy="339" grid="1" gridSize="10" guides="1" tooltips="1" connect="1" arrows="1" fold="1" page="1" pageScale="1" pageWidth="827" pageHeight="1169" math="0" shadow="0">
            <root>
                <mxCell id="0"/>
                <mxCell id="1" parent="0"/>
                <mxCell id="2" value="" style="rounded=0;whiteSpace=wrap;html=1;" parent="1" vertex="1">
                    <mxGeometry x="23.75" y="30" width="680" height="403.5" as="geometry"/>
                </mxCell>
                <mxCell id="3" value="売上情報編集" style="text;html=1;strokeColor=none;fillColor=none;align=center;verticalAlign=middle;whiteSpace=wrap;rounded=0;fontColor=default;fontStyle=1;fontSize=20;" parent="1" vertex="1">
                    <mxGeometry x="282.5" y="55" width="162.5" height="50" as="geometry"/>
                </mxCell>
                <mxCell id="4" value="&lt;span style=&quot;font-size: 19px&quot;&gt;更新&lt;/span&gt;" style="rounded=1;whiteSpace=wrap;html=1;align=center;labelBackgroundColor=none;fillColor=#d5e8d4;strokeColor=#82b366;" parent="1" vertex="1">
                    <mxGeometry x="298.75" y="389" width="130" height="34" as="geometry"/>
                </mxCell>
                <mxCell id="23" value="" style="shape=table;startSize=0;container=1;collapsible=0;childLayout=tableLayout;" parent="1" vertex="1">
                    <mxGeometry x="39.75" y="160" width="648" height="151.92000000000002" as="geometry"/>
                </mxCell>
                <mxCell id="24" value="" style="shape=partialRectangle;collapsible=0;dropTarget=0;pointerEvents=0;fillColor=none;top=0;left=0;bottom=0;right=0;points=[[0,0.5],[1,0.5]];portConstraint=eastwest;" parent="23" vertex="1">
                    <mxGeometry width="648" height="30" as="geometry"/>
                </mxCell>
                <mxCell id="25" value="商品コード" style="shape=partialRectangle;html=1;whiteSpace=wrap;connectable=0;overflow=hidden;fillColor=#b0e3e6;top=0;left=0;bottom=0;right=0;pointerEvents=1;strokeColor=#0e8088;" parent="24" vertex="1">
                    <mxGeometry width="93" height="30" as="geometry">
                        <mxRectangle width="93" height="30" as="alternateBounds"/>
                    </mxGeometry>
                </mxCell>
                <mxCell id="26" value="仕入価格" style="shape=partialRectangle;html=1;whiteSpace=wrap;connectable=0;overflow=hidden;fillColor=#b0e3e6;top=0;left=0;bottom=0;right=0;pointerEvents=1;strokeColor=#0e8088;" parent="24" vertex="1">
                    <mxGeometry x="93" width="92" height="30" as="geometry">
                        <mxRectangle width="92" height="30" as="alternateBounds"/>
                    </mxGeometry>
                </mxCell>
                <mxCell id="27" value="販売価格" style="shape=partialRectangle;html=1;whiteSpace=wrap;connectable=0;overflow=hidden;fillColor=#b0e3e6;top=0;left=0;bottom=0;right=0;pointerEvents=1;strokeColor=#0e8088;" parent="24" vertex="1">
                    <mxGeometry x="185" width="93" height="30" as="geometry">
                        <mxRectangle width="93" height="30" as="alternateBounds"/>
                    </mxGeometry>
                </mxCell>
                <mxCell id="28" value="粗利" style="shape=partialRectangle;html=1;whiteSpace=wrap;connectable=0;overflow=hidden;fillColor=#b0e3e6;top=0;left=0;bottom=0;right=0;pointerEvents=1;strokeColor=#0e8088;" parent="24" vertex="1">
                    <mxGeometry x="278" width="92" height="30" as="geometry">
                        <mxRectangle width="92" height="30" as="alternateBounds"/>
                    </mxGeometry>
                </mxCell>
                <mxCell id="29" value="粗利率" style="shape=partialRectangle;html=1;whiteSpace=wrap;connectable=0;overflow=hidden;fillColor=#b0e3e6;top=0;left=0;bottom=0;right=0;pointerEvents=1;strokeColor=#0e8088;" parent="24" vertex="1">
                    <mxGeometry x="370" width="93" height="30" as="geometry">
                        <mxRectangle width="93" height="30" as="alternateBounds"/>
                    </mxGeometry>
                </mxCell>
                <mxCell id="30" value="販売日" style="shape=partialRectangle;html=1;whiteSpace=wrap;connectable=0;overflow=hidden;fillColor=#b0e3e6;top=0;left=0;bottom=0;right=0;pointerEvents=1;strokeColor=#0e8088;" parent="24" vertex="1">
                    <mxGeometry x="463" width="92" height="30" as="geometry">
                        <mxRectangle width="92" height="30" as="alternateBounds"/>
                    </mxGeometry>
                </mxCell>
                <mxCell id="31" value="販売店舗" style="shape=partialRectangle;html=1;whiteSpace=wrap;connectable=0;overflow=hidden;fillColor=#b0e3e6;top=0;left=0;bottom=0;right=0;pointerEvents=1;strokeColor=#0e8088;" parent="24" vertex="1">
                    <mxGeometry x="555" width="93" height="30" as="geometry">
                        <mxRectangle width="93" height="30" as="alternateBounds"/>
                    </mxGeometry>
                </mxCell>
                <mxCell id="32" value="" style="shape=partialRectangle;collapsible=0;dropTarget=0;pointerEvents=0;fillColor=none;top=0;left=0;bottom=0;right=0;points=[[0,0.5],[1,0.5]];portConstraint=eastwest;" parent="23" vertex="1">
                    <mxGeometry y="30" width="648" height="40" as="geometry"/>
                </mxCell>
                <mxCell id="33" value="&lt;span style=&quot;text-align: left&quot;&gt;0123456789123&lt;/span&gt;" style="shape=partialRectangle;html=1;whiteSpace=wrap;connectable=0;overflow=hidden;fillColor=none;top=0;left=0;bottom=0;right=0;pointerEvents=1;" parent="32" vertex="1">
                    <mxGeometry width="93" height="40" as="geometry">
                        <mxRectangle width="93" height="40" as="alternateBounds"/>
                    </mxGeometry>
                </mxCell>
                <mxCell id="34" value="800" style="shape=partialRectangle;html=1;whiteSpace=wrap;connectable=0;overflow=hidden;fillColor=none;top=0;left=0;bottom=0;right=0;pointerEvents=1;" parent="32" vertex="1">
                    <mxGeometry x="93" width="92" height="40" as="geometry">
                        <mxRectangle width="92" height="40" as="alternateBounds"/>
                    </mxGeometry>
                </mxCell>
                <mxCell id="35" value="1000" style="shape=partialRectangle;html=1;whiteSpace=wrap;connectable=0;overflow=hidden;fillColor=none;top=0;left=0;bottom=0;right=0;pointerEvents=1;" parent="32" vertex="1">
                    <mxGeometry x="185" width="93" height="40" as="geometry">
                        <mxRectangle width="93" height="40" as="alternateBounds"/>
                    </mxGeometry>
                </mxCell>
                <mxCell id="36" value="200" style="shape=partialRectangle;html=1;whiteSpace=wrap;connectable=0;overflow=hidden;fillColor=none;top=0;left=0;bottom=0;right=0;pointerEvents=1;" parent="32" vertex="1">
                    <mxGeometry x="278" width="92" height="40" as="geometry">
                        <mxRectangle width="92" height="40" as="alternateBounds"/>
                    </mxGeometry>
                </mxCell>
                <mxCell id="37" value="20.0%" style="shape=partialRectangle;html=1;whiteSpace=wrap;connectable=0;overflow=hidden;fillColor=none;top=0;left=0;bottom=0;right=0;pointerEvents=1;" parent="32" vertex="1">
                    <mxGeometry x="370" width="93" height="40" as="geometry">
                        <mxRectangle width="93" height="40" as="alternateBounds"/>
                    </mxGeometry>
                </mxCell>
                <mxCell id="38" value="2020/10/31" style="shape=partialRectangle;html=1;whiteSpace=wrap;connectable=0;overflow=hidden;fillColor=none;top=0;left=0;bottom=0;right=0;pointerEvents=1;" parent="32" vertex="1">
                    <mxGeometry x="463" width="92" height="40" as="geometry">
                        <mxRectangle width="92" height="40" as="alternateBounds"/>
                    </mxGeometry>
                </mxCell>
                <mxCell id="39" value="店舗A" style="shape=partialRectangle;html=1;whiteSpace=wrap;connectable=0;overflow=hidden;fillColor=none;top=0;left=0;bottom=0;right=0;pointerEvents=1;" parent="32" vertex="1">
                    <mxGeometry x="555" width="93" height="40" as="geometry">
                        <mxRectangle width="93" height="40" as="alternateBounds"/>
                    </mxGeometry>
                </mxCell>
                <mxCell id="91" style="shape=partialRectangle;collapsible=0;dropTarget=0;pointerEvents=0;fillColor=none;top=0;left=0;bottom=0;right=0;points=[[0,0.5],[1,0.5]];portConstraint=eastwest;" parent="23" vertex="1">
                    <mxGeometry y="70" width="648" height="41" as="geometry"/>
                </mxCell>
                <mxCell id="92" style="shape=partialRectangle;html=1;whiteSpace=wrap;connectable=0;overflow=hidden;fillColor=none;top=0;left=0;bottom=0;right=0;pointerEvents=1;" parent="91" vertex="1">
                    <mxGeometry width="93" height="41" as="geometry">
                        <mxRectangle width="93" height="41" as="alternateBounds"/>
                    </mxGeometry>
                </mxCell>
                <mxCell id="93" style="shape=partialRectangle;html=1;whiteSpace=wrap;connectable=0;overflow=hidden;fillColor=none;top=0;left=0;bottom=0;right=0;pointerEvents=1;" parent="91" vertex="1">
                    <mxGeometry x="93" width="92" height="41" as="geometry">
                        <mxRectangle width="92" height="41" as="alternateBounds"/>
                    </mxGeometry>
                </mxCell>
                <mxCell id="94" value="-1000" style="shape=partialRectangle;html=1;whiteSpace=wrap;connectable=0;overflow=hidden;fillColor=none;top=0;left=0;bottom=0;right=0;pointerEvents=1;" parent="91" vertex="1">
                    <mxGeometry x="185" width="93" height="41" as="geometry">
                        <mxRectangle width="93" height="41" as="alternateBounds"/>
                    </mxGeometry>
                </mxCell>
                <mxCell id="95" style="shape=partialRectangle;html=1;whiteSpace=wrap;connectable=0;overflow=hidden;fillColor=none;top=0;left=0;bottom=0;right=0;pointerEvents=1;" parent="91" vertex="1">
                    <mxGeometry x="278" width="92" height="41" as="geometry">
                        <mxRectangle width="92" height="41" as="alternateBounds"/>
                    </mxGeometry>
                </mxCell>
                <mxCell id="96" style="shape=partialRectangle;html=1;whiteSpace=wrap;connectable=0;overflow=hidden;fillColor=none;top=0;left=0;bottom=0;right=0;pointerEvents=1;" parent="91" vertex="1">
                    <mxGeometry x="370" width="93" height="41" as="geometry">
                        <mxRectangle width="93" height="41" as="alternateBounds"/>
                    </mxGeometry>
                </mxCell>
                <mxCell id="97" style="shape=partialRectangle;html=1;whiteSpace=wrap;connectable=0;overflow=hidden;fillColor=none;top=0;left=0;bottom=0;right=0;pointerEvents=1;" parent="91" vertex="1">
                    <mxGeometry x="463" width="92" height="41" as="geometry">
                        <mxRectangle width="92" height="41" as="alternateBounds"/>
                    </mxGeometry>
                </mxCell>
                <mxCell id="98" style="shape=partialRectangle;html=1;whiteSpace=wrap;connectable=0;overflow=hidden;fillColor=none;top=0;left=0;bottom=0;right=0;pointerEvents=1;" parent="91" vertex="1">
                    <mxGeometry x="555" width="93" height="41" as="geometry">
                        <mxRectangle width="93" height="41" as="alternateBounds"/>
                    </mxGeometry>
                </mxCell>
                <mxCell id="99" style="shape=partialRectangle;collapsible=0;dropTarget=0;pointerEvents=0;fillColor=none;top=0;left=0;bottom=0;right=0;points=[[0,0.5],[1,0.5]];portConstraint=eastwest;" parent="23" vertex="1">
                    <mxGeometry y="111" width="648" height="41" as="geometry"/>
                </mxCell>
                <mxCell id="100" style="shape=partialRectangle;html=1;whiteSpace=wrap;connectable=0;overflow=hidden;fillColor=none;top=0;left=0;bottom=0;right=0;pointerEvents=1;" parent="99" vertex="1">
                    <mxGeometry width="93" height="41" as="geometry">
                        <mxRectangle width="93" height="41" as="alternateBounds"/>
                    </mxGeometry>
                </mxCell>
                <mxCell id="101" style="shape=partialRectangle;html=1;whiteSpace=wrap;connectable=0;overflow=hidden;fillColor=none;top=0;left=0;bottom=0;right=0;pointerEvents=1;" parent="99" vertex="1">
                    <mxGeometry x="93" width="92" height="41" as="geometry">
                        <mxRectangle width="92" height="41" as="alternateBounds"/>
                    </mxGeometry>
                </mxCell>
                <mxCell id="102" value="900" style="shape=partialRectangle;html=1;whiteSpace=wrap;connectable=0;overflow=hidden;fillColor=none;top=0;left=0;bottom=0;right=0;pointerEvents=1;" parent="99" vertex="1">
                    <mxGeometry x="185" width="93" height="41" as="geometry">
                        <mxRectangle width="93" height="41" as="alternateBounds"/>
                    </mxGeometry>
                </mxCell>
                <mxCell id="103" style="shape=partialRectangle;html=1;whiteSpace=wrap;connectable=0;overflow=hidden;fillColor=none;top=0;left=0;bottom=0;right=0;pointerEvents=1;" parent="99" vertex="1">
                    <mxGeometry x="278" width="92" height="41" as="geometry">
                        <mxRectangle width="92" height="41" as="alternateBounds"/>
                    </mxGeometry>
                </mxCell>
                <mxCell id="104" style="shape=partialRectangle;html=1;whiteSpace=wrap;connectable=0;overflow=hidden;fillColor=none;top=0;left=0;bottom=0;right=0;pointerEvents=1;" parent="99" vertex="1">
                    <mxGeometry x="370" width="93" height="41" as="geometry">
                        <mxRectangle width="93" height="41" as="alternateBounds"/>
                    </mxGeometry>
                </mxCell>
                <mxCell id="105" style="shape=partialRectangle;html=1;whiteSpace=wrap;connectable=0;overflow=hidden;fillColor=none;top=0;left=0;bottom=0;right=0;pointerEvents=1;" parent="99" vertex="1">
                    <mxGeometry x="463" width="92" height="41" as="geometry">
                        <mxRectangle width="92" height="41" as="alternateBounds"/>
                    </mxGeometry>
                </mxCell>
                <mxCell id="106" style="shape=partialRectangle;html=1;whiteSpace=wrap;connectable=0;overflow=hidden;fillColor=none;top=0;left=0;bottom=0;right=0;pointerEvents=1;" parent="99" vertex="1">
                    <mxGeometry x="555" width="93" height="41" as="geometry">
                        <mxRectangle width="93" height="41" as="alternateBounds"/>
                    </mxGeometry>
                </mxCell>
                <mxCell id="42" value="打ち直し" style="rounded=1;arcSize=9;fillColor=#ffffff;strokeColor=#4C9AFF;html=1;strokeWidth=2;spacingLeft=30;fontColor=#000000;align=left" parent="1" vertex="1">
                    <mxGeometry x="39.75" y="105" width="200" height="33" as="geometry"/>
                </mxCell>
                <mxCell id="43" value="" style="shape=step;whiteSpace=wrap;html=1;rounded=0;strokeColor=none;strokeWidth=2;fillColor=#0A1E43;gradientColor=none;fontFamily=Verdana;fontSize=14;fontColor=#000000;align=left;direction=south;size=0.65;" parent="42" vertex="1">
                    <mxGeometry x="1" y="0.5" width="10" height="7" relative="1" as="geometry">
                        <mxPoint x="-24" y="-3" as="offset"/>
                    </mxGeometry>
                </mxCell>
                <mxCell id="70" value="　　　　　　900" style="rounded=1;arcSize=9;fillColor=#F7F8F9;align=left;spacingLeft=5;strokeColor=#DEE1E6;html=1;strokeWidth=2;fontSize=12" parent="1" vertex="1">
                    <mxGeometry x="336" y="105" width="108.5" height="33" as="geometry"/>
                </mxCell>
                <mxCell id="71" value="販売価格" style="text;html=1;strokeColor=none;fillColor=none;align=center;verticalAlign=middle;whiteSpace=wrap;rounded=0;" parent="1" vertex="1">
                    <mxGeometry x="270" y="106.5" width="66" height="30" as="geometry"/>
                </mxCell>
                <mxCell id="72" value="円" style="text;html=1;strokeColor=none;fillColor=none;align=center;verticalAlign=middle;whiteSpace=wrap;rounded=0;" parent="1" vertex="1">
                    <mxGeometry x="444.5" y="105" width="30" height="30" as="geometry"/>
                </mxCell>
                <mxCell id="123" value="&lt;span style=&quot;font-size: 19px&quot;&gt;確定&lt;/span&gt;" style="rounded=1;whiteSpace=wrap;html=1;align=center;labelBackgroundColor=none;fillColor=#d5e8d4;strokeColor=#82b366;" parent="1" vertex="1">
                    <mxGeometry x="520" y="101" width="130" height="34" as="geometry"/>
                </mxCell>
            </root>
        </mxGraphModel>
    </diagram>
</mxfile>